<?xml version="1.0" standalone="no"?>
<!DOCTYPE svg PUBLIC "-//W3C//DTD SVG 20010904//EN"
 "http://www.w3.org/TR/2001/REC-SVG-20010904/DTD/svg10.dtd">
<svg version="1.0" xmlns="http://www.w3.org/2000/svg"
 width="260.000000pt" height="260.000000pt" viewBox="0 0 260.000000 260.000000"
 preserveAspectRatio="xMidYMid meet">
<metadata>
Created by potrace 1.11, written by Peter Selinger 2001-2013
</metadata>
<g transform="translate(0.000000,260.000000) scale(0.100000,-0.100000)"
fill="#000000" stroke="none">
<path d="M17 2452 c-16 -3 -17 -84 -15 -1155 l3 -1152 183 0 c101 0 187 2 192
5 5 3 8 389 7 893 -1 488 0 887 3 887 3 0 183 -356 400 -790 217 -435 397
-791 400 -791 16 -4 197 -4 208 -1 8 3 60 98 117 211 56 113 235 468 396 789
l294 582 3 -893 2 -892 193 0 192 0 3 1153 2 1152 -57 0 c-32 1 -168 1 -303 1
l-244 1 -77 -159 c-42 -87 -104 -214 -137 -283 -33 -69 -92 -192 -132 -275
-126 -261 -287 -598 -326 -680 l-23 -49 -77 159 c-42 88 -100 210 -129 270
-29 61 -87 182 -130 270 -43 88 -94 196 -115 240 -21 44 -76 159 -123 256 -47
97 -93 193 -102 213 -10 20 -25 36 -34 36 -125 3 -562 4 -574 2z"/>
</g>
</svg>
